<svg width="238" height="52" viewBox="0 0 238 52" fill="none" xmlns="http://www.w3.org/2000/svg">
<path d="M5.65696 22H0.713778L8.24574 0.181818H14.1903L21.7116 22H16.7685L11.3033 5.16761H11.1328L5.65696 22ZM5.34801 13.424H17.0241V17.0249H5.34801V13.424ZM24.3377 22V0.181818H33.0735C34.6786 0.181818 36.0174 0.419744 37.0898 0.895596C38.1623 1.37145 38.9684 2.03196 39.5082 2.87713C40.0479 3.7152 40.3178 4.68111 40.3178 5.77486C40.3178 6.62713 40.1474 7.37642 39.8065 8.02273C39.4656 8.66193 38.9968 9.1875 38.4002 9.59943C37.8107 10.0043 37.136 10.2919 36.3761 10.4624V10.6754C37.207 10.7109 37.9847 10.9453 38.7092 11.3786C39.4407 11.8118 40.0337 12.419 40.4883 13.2003C40.9428 13.9744 41.1701 14.8977 41.1701 15.9702C41.1701 17.1278 40.8825 18.1612 40.3072 19.0703C39.739 19.9723 38.8974 20.6861 37.7823 21.2116C36.6673 21.7372 35.293 22 33.6594 22H24.3377ZM28.9506 18.2287H32.7113C33.9968 18.2287 34.9343 17.9837 35.5238 17.4936C36.1133 16.9964 36.408 16.3359 36.408 15.5121C36.408 14.9084 36.2624 14.3757 35.9712 13.9141C35.68 13.4524 35.2646 13.0902 34.7248 12.8274C34.1921 12.5646 33.5565 12.4332 32.8178 12.4332H28.9506V18.2287ZM28.9506 9.31179H32.3704C33.0025 9.31179 33.5636 9.2017 34.0536 8.98153C34.5508 8.75426 34.9414 8.43466 35.2255 8.02273C35.5167 7.6108 35.6623 7.11719 35.6623 6.5419C35.6623 5.75355 35.3817 5.1179 34.8207 4.63494C34.2667 4.15199 33.4783 3.91051 32.4556 3.91051H28.9506V9.31179ZM51.9061 22H44.1717V0.181818H51.97C54.1646 0.181818 56.0538 0.618608 57.6376 1.49219C59.2214 2.35866 60.4395 3.60511 61.2917 5.23153C62.1511 6.85795 62.5808 8.80398 62.5808 11.0696C62.5808 13.3423 62.1511 15.2955 61.2917 16.929C60.4395 18.5625 59.2143 19.8161 57.6163 20.6896C56.0254 21.5632 54.122 22 51.9061 22ZM48.7846 18.0476H51.7143C53.0779 18.0476 54.225 17.8061 55.1554 17.3232C56.0929 16.8331 56.796 16.0767 57.2647 15.054C57.7406 14.0241 57.9785 12.696 57.9785 11.0696C57.9785 9.45739 57.7406 8.13991 57.2647 7.11719C56.796 6.09446 56.0964 5.34162 55.166 4.85866C54.2356 4.37571 53.0886 4.13423 51.725 4.13423H48.7846V18.0476ZM79.4744 0.181818H84.0874V14.3509C84.0874 15.9418 83.7074 17.3338 82.9474 18.527C82.1946 19.7202 81.1399 20.6506 79.7834 21.3182C78.4268 21.9787 76.8466 22.3089 75.0426 22.3089C73.2315 22.3089 71.6477 21.9787 70.2912 21.3182C68.9347 20.6506 67.88 19.7202 67.1271 18.527C66.3743 17.3338 65.9979 15.9418 65.9979 14.3509V0.181818H70.6108V13.9567C70.6108 14.7876 70.7919 15.5263 71.1541 16.1726C71.5234 16.8189 72.0419 17.3267 72.7095 17.696C73.3771 18.0653 74.1548 18.25 75.0426 18.25C75.9375 18.25 76.7152 18.0653 77.3757 17.696C78.0433 17.3267 78.5582 16.8189 78.9205 16.1726C79.2898 15.5263 79.4744 14.7876 79.4744 13.9567V0.181818ZM87.8826 22V0.181818H92.4956V18.1967H101.849V22H87.8826ZM104.904 22V0.181818H113.512C115.16 0.181818 116.566 0.476562 117.731 1.06605C118.903 1.64844 119.794 2.47585 120.405 3.5483C121.023 4.61364 121.332 5.86719 121.332 7.30895C121.332 8.75781 121.019 10.0043 120.394 11.0483C119.769 12.0852 118.864 12.8807 117.678 13.4347C116.499 13.9886 115.071 14.2656 113.395 14.2656H107.631V10.5582H112.649C113.53 10.5582 114.261 10.4375 114.844 10.196C115.426 9.95455 115.859 9.59233 116.143 9.10938C116.435 8.62642 116.58 8.02628 116.58 7.30895C116.58 6.58452 116.435 5.97372 116.143 5.47656C115.859 4.9794 115.423 4.60298 114.833 4.3473C114.251 4.08452 113.516 3.95312 112.628 3.95312H109.517V22H104.904ZM116.687 12.071L122.109 22H117.017L111.712 12.071H116.687ZM128.352 22H123.409L130.941 0.181818H136.886L144.407 22H139.464L133.999 5.16761H133.828L128.352 22ZM128.043 13.424H139.719V17.0249H128.043V13.424ZM147.033 22V0.181818H151.646V9.18395H161.01V0.181818H165.613V22H161.01V12.9872H151.646V22H147.033ZM169.416 0.181818H175.105L181.113 14.8409H181.369L187.377 0.181818H193.066V22H188.592V7.79901H188.411L182.765 21.8935H179.718L174.071 7.74574H173.89V22H169.416V0.181818ZM200.628 22H195.684L203.216 0.181818H209.161L216.682 22H211.739L206.274 5.16761H206.104L200.628 22ZM200.319 13.424H211.995V17.0249H200.319V13.424ZM237.558 0.181818V22H233.573L224.081 8.26776H223.921V22H219.308V0.181818H223.357L232.774 13.9034H232.966V0.181818H237.558Z" fill="url(#paint0_linear_0_1)"/>
<path d="M5.65696 51H0.713778L8.24574 29.1818H14.1903L21.7116 51H16.7685L11.3033 34.1676H11.1328L5.65696 51ZM5.34801 42.424H17.0241V46.0249H5.34801V42.424ZM24.3377 51V29.1818H28.9506V47.1967H38.3043V51H24.3377ZM45.9721 29.1818V51H41.3592V29.1818H45.9721ZM57.5018 51H49.7674V29.1818H57.5657C59.7603 29.1818 61.6495 29.6186 63.2333 30.4922C64.8171 31.3587 66.0352 32.6051 66.8874 34.2315C67.7468 35.858 68.1765 37.804 68.1765 40.0696C68.1765 42.3423 67.7468 44.2955 66.8874 45.929C66.0352 47.5625 64.81 48.8161 63.212 49.6896C61.6211 50.5632 59.7177 51 57.5018 51ZM54.3803 47.0476H57.31C58.6737 47.0476 59.8207 46.8061 60.7511 46.3232C61.6886 45.8331 62.3917 45.0767 62.8604 44.054C63.3363 43.0241 63.5742 41.696 63.5742 40.0696C63.5742 38.4574 63.3363 37.1399 62.8604 36.1172C62.3917 35.0945 61.6921 34.3416 60.7617 33.8587C59.8313 33.3757 58.6843 33.1342 57.3207 33.1342H54.3803V47.0476ZM71.5936 51V29.1818H80.2015C81.8493 29.1818 83.2555 29.4766 84.4203 30.0661C85.5922 30.6484 86.4835 31.4759 87.0943 32.5483C87.7122 33.6136 88.0211 34.8672 88.0211 36.3089C88.0211 37.7578 87.7086 39.0043 87.0836 40.0483C86.4586 41.0852 85.5531 41.8807 84.367 42.4347C83.188 42.9886 81.7605 43.2656 80.0843 43.2656H74.3208V39.5582H79.3386C80.2193 39.5582 80.9508 39.4375 81.5332 39.196C82.1156 38.9545 82.5488 38.5923 82.8329 38.1094C83.1241 37.6264 83.2697 37.0263 83.2697 36.3089C83.2697 35.5845 83.1241 34.9737 82.8329 34.4766C82.5488 33.9794 82.112 33.603 81.5226 33.3473C80.9402 33.0845 80.2051 32.9531 79.3173 32.9531H76.2065V51H71.5936ZM83.3762 41.071L88.7988 51H83.7065L78.4011 41.071H83.3762ZM95.894 29.1818V51H91.2811V29.1818H95.894ZM111.525 35.4567C111.44 34.5973 111.074 33.9297 110.428 33.4538C109.782 32.978 108.904 32.7401 107.797 32.7401C107.044 32.7401 106.408 32.8466 105.89 33.0597C105.371 33.2656 104.973 33.5533 104.696 33.9226C104.426 34.2919 104.292 34.7109 104.292 35.1797C104.277 35.5703 104.359 35.9112 104.537 36.2024C104.721 36.4936 104.973 36.7457 105.293 36.9588C105.613 37.1648 105.982 37.3459 106.401 37.5021C106.82 37.6513 107.267 37.7791 107.743 37.8857L109.703 38.3544C110.655 38.5675 111.529 38.8516 112.324 39.2067C113.12 39.5618 113.809 39.9986 114.391 40.517C114.973 41.0355 115.424 41.6463 115.744 42.3494C116.071 43.0526 116.238 43.8587 116.245 44.7678C116.238 46.103 115.897 47.2607 115.222 48.2408C114.554 49.2138 113.588 49.9702 112.324 50.5099C111.067 51.0426 109.551 51.3089 107.775 51.3089C106.014 51.3089 104.48 51.0391 103.173 50.4993C101.873 49.9595 100.858 49.1605 100.126 48.1023C99.4016 47.0369 99.0217 45.7195 98.9862 44.1499H103.45C103.5 44.8814 103.709 45.4922 104.078 45.9822C104.455 46.4652 104.956 46.831 105.581 47.0795C106.213 47.321 106.926 47.4418 107.722 47.4418C108.503 47.4418 109.181 47.3281 109.757 47.1009C110.339 46.8736 110.79 46.5575 111.11 46.1527C111.429 45.7479 111.589 45.2827 111.589 44.7571C111.589 44.267 111.444 43.8551 111.152 43.5213C110.868 43.1875 110.449 42.9034 109.895 42.669C109.348 42.4347 108.677 42.2216 107.882 42.0298L105.506 41.4332C103.667 40.9858 102.214 40.2862 101.149 39.3345C100.083 38.3828 99.5543 37.1009 99.5614 35.4886C99.5543 34.1676 99.9059 33.0135 100.616 32.0263C101.333 31.0391 102.317 30.2685 103.567 29.7145C104.817 29.1605 106.238 28.8835 107.828 28.8835C109.448 28.8835 110.861 29.1605 112.069 29.7145C113.283 30.2685 114.228 31.0391 114.902 32.0263C115.577 33.0135 115.925 34.157 115.946 35.4567H111.525ZM118.069 29.1818H123.236L128.211 38.5781H128.424L133.399 29.1818H138.566L130.608 43.2869V51H126.027V43.2869L118.069 29.1818Z" fill="white"/>
<defs>
<linearGradient id="paint0_linear_0_1" x1="0" y1="11" x2="268" y2="11" gradientUnits="userSpaceOnUse">
<stop stop-color="#FF56F6"/>
<stop offset="1" stop-color="#49A0E3"/>
</linearGradient>
</defs>
</svg>
